<?xml version="1.0" encoding="utf-8"?>
<!-- Generator: Adobe Illustrator 19.0.0, SVG Export Plug-In . SVG Version: 6.00 Build 0)  -->
<svg version="1.1" id="Objects" xmlns="http://www.w3.org/2000/svg" xmlns:xlink="http://www.w3.org/1999/xlink" x="0px" y="0px"
	 viewBox="-335 252 121 109" style="enable-background:new -335 252 121 109;" xml:space="preserve">
<style type="text/css">
	.st0{fill:#1C1C1C;}
	.st1{fill:#FEFEFE;}
</style>
<g>
	<path class="st0" d="M-274.5,272.3c12.1,0,24.3,0,36.4,0c2.1,0,4,0.4,5.6,1.9c1.7,1.6,2.5,3.6,2.5,5.9c0,17.7,0,35.4,0,53.1
		c0,2.8,0,5.6,0,8.4c0,4.6-3.1,7.8-7.8,7.8c-19.2,0-38.4,0-57.7,0c-5.3,0-10.5,0-15.8,0c-3.9,0-6.9-2.5-7.6-6.3
		c-0.1-0.5-0.1-1.1-0.1-1.7c0-20.4,0.1-40.7,0-61.1c0-4.2,3.1-8.1,8.1-8C-298.8,272.4-286.6,272.3-274.5,272.3z"/>
	<path class="st1" d="M-274.5,307.8c-5.8,0-11.6,0-17.4,0c-2.2,0-3.4-1.1-3.4-3.3c0-7.6,0-15.3,0-22.9c0-2.2,1.2-3.4,3.4-3.4
		c11.6,0,23.1,0,34.7,0c2.2,0,3.4,1.2,3.4,3.4c0,7.6,0,15.3,0,22.9c0,2.2-1.2,3.3-3.4,3.3C-262.9,307.8-268.7,307.8-274.5,307.8z"/>
	<path class="st1" d="M-274.4,313.8c5.7,0,11.5,0,17.2,0c2.4,0,3.5,1.1,3.5,3.5c0,7.5,0,15.1,0,22.6c0,2.3-1.2,3.5-3.5,3.5
		c-11.5,0-23.1,0-34.6,0c-2.2,0-3.4-1.2-3.4-3.4c0-7.6,0-15.2,0-22.7c0-2.3,1.1-3.5,3.5-3.5C-286,313.8-280.2,313.8-274.4,313.8z"/>
	<path class="st1" d="M-307.1,307.8c-1,0-2,0-3,0c-1.6,0-2.9-1.2-2.9-2.8c-0.1-2.1-0.1-4.2,0-6.3c0-1.5,1.3-2.7,2.8-2.8
		c2.1,0,4.1,0,6.2,0c1.6,0,2.8,1.3,2.9,2.9c0,2,0,4,0,6c0,1.7-1.3,2.9-3,2.9C-305.1,307.8-306.1,307.8-307.1,307.8z"/>
	<path class="st1" d="M-307,331.6c1,0,2,0,3,0c1.6,0.1,2.8,1.3,2.9,2.9c0,2,0,4,0,6c0,1.7-1.3,2.9-3,2.9c-1.9,0-3.9,0-5.8,0
		c-1.7,0-3-1.2-3-2.9c0-2,0-4,0-6c0-1.7,1.2-2.9,2.9-2.9C-309.1,331.5-308,331.6-307,331.6C-307,331.6-307,331.6-307,331.6z"/>
	<path class="st1" d="M-241.9,325.6c-0.9,0-1.9,0-2.8,0c-1.7,0-3-1.2-3.1-2.9c0-2-0.1-4,0-6c0-1.7,1.3-2.9,3-2.9c2,0,3.9,0,5.9,0
		c1.7,0,2.9,1.2,3,2.9c0.1,2,0.1,4.1,0,6.1c-0.1,1.7-1.3,2.9-3,2.9C-240,325.6-241,325.6-241.9,325.6z"/>
	<path class="st1" d="M-307.1,325.6c-1,0-2,0-3,0c-1.6,0-2.8-1.2-2.9-2.7c-0.1-2.1-0.1-4.2,0-6.3c0-1.5,1.3-2.7,2.8-2.7
		c2.1,0,4.1,0,6.2,0c1.6,0,2.8,1.3,2.8,2.9c0,2,0,4,0,6c0,1.7-1.3,2.9-3,2.9C-305.1,325.6-306.1,325.6-307.1,325.6z"/>
	<path class="st1" d="M-242,290.1c-0.9,0-1.9,0-2.8,0c-1.8-0.1-3-1.3-3-3.1c0-1.9,0-3.8,0-5.6c0-1.8,1.3-3.1,3.1-3.1
		c1.9,0,3.8,0,5.6,0c1.8,0,3.1,1.2,3.1,3c0,1.9,0,3.9,0,5.8c0,1.8-1.2,3-3.1,3C-240,290.1-241,290.1-242,290.1z"/>
	<path class="st1" d="M-242,307.8c-0.9,0-1.9,0-2.8,0c-1.7,0-3-1.2-3-2.9c-0.1-2-0.1-4.1,0-6.1c0-1.6,1.3-2.8,3-2.9c2,0,3.9,0,5.9,0
		c1.6,0,2.9,1.2,2.9,2.8c0.1,2.1,0.1,4.1,0,6.2c-0.1,1.7-1.3,2.8-3,2.8C-240,307.8-241,307.8-242,307.8z"/>
	<path class="st1" d="M-236,337.5c0,0.9,0,1.9,0,2.8c-0.1,1.9-1.3,3.1-3.1,3.1c-1.9,0-3.7,0-5.6,0c-1.9,0-3.1-1.3-3.2-3.1
		c0-1.9,0-3.7,0-5.6c0-1.9,1.2-3.1,3.1-3.1c1.9,0,3.8,0,5.7,0c1.8,0,3,1.2,3.1,3C-235.9,335.6-236,336.5-236,337.5z"/>
	<path class="st1" d="M-313,284.1c0-0.9,0-1.9,0-2.8c0-1.8,1.3-3,3.1-3.1c1.9,0,3.8,0,5.7,0c1.8,0,3,1.3,3.1,3.1c0,1.9,0,3.8,0,5.7
		c0,1.8-1.2,3-3,3c-2,0-3.9,0-5.9,0c-1.7,0-2.9-1.2-2.9-3C-313,286.1-313,285.1-313,284.1z"/>
</g>
</svg>
