<?xml version="1.0" encoding="utf-8"?>
<!-- Generator: Adobe Illustrator 19.0.0, SVG Export Plug-In . SVG Version: 6.00 Build 0)  -->
<svg version="1.1" id="Capa_1" xmlns="http://www.w3.org/2000/svg" xmlns:xlink="http://www.w3.org/1999/xlink" x="0px" y="0px"
	 viewBox="-219 128 352 357" style="enable-background:new -219 128 352 357;" xml:space="preserve">
<style type="text/css">
	.st0{fill:#FFFFFF;}
	.st1{enable-background:new    ;}
</style>
<g>
	<g>
		<path class="st0" d="M-40,137.8c59,0,110.9,30.5,141.1,76.4l2.6-0.6C73.3,166.5,20.1,135.3-40,135.3c-87.5,0-159.8,66-169.9,150.8
			l2.6-0.6C-196.9,202.3-125.9,137.8-40,137.8z"/>
	</g>
</g>
<g>
	<g>
		<path class="st0" d="M121.3,335.3c-13.7,79.3-83,139.8-166.1,139.8c-56.1,0-105.9-27.6-136.6-69.9l-2.7,0.6
			c31.1,43.4,81.9,71.8,139.3,71.8c84.8,0,155.3-62,168.8-143L121.3,335.3z"/>
	</g>
</g>
<g>
	<g>
		<path class="st0" d="M-40,146c51.1,0,96.6,23.9,126.1,61.1l1.5-0.4C57.8,168.9,11.7,144.5-40,144.5c-78,0-143.3,55.3-158.8,128.7
			l1.5-0.4C-181.8,200.5-117.2,146-40,146z"/>
	</g>
</g>
<g class="st1">
	<path class="st0" d="M-165.8,304.1l-30.7,7.2l-4.1-17.7l82.4-19.2l4.2,17.9l-30.4,7.1l18.3,78.6l-21.2,4.9L-165.8,304.1z"/>
	<path class="st0" d="M-99.9,269.9l27.6-6.4l32.3,37.4l12-47.7l28-6.5l22.5,96.6l-19.9,4.6l-15.9-68.3l-0.3,0.1l-11.3,49l-16.4,3.8
		l-31.5-38.3l-0.3,0.1l15.8,67.7l-20.2,4.7L-99.9,269.9z"/>
	<path class="st0" d="M44.8,337.3L22.4,241l20.8-4.9l18.3,78.5l49.5-11.5l4.2,17.9L44.8,337.3z"/>
</g>
</svg>
